<svg width="471" height="184" viewBox="0 0 471 184" fill="none" xmlns="http://www.w3.org/2000/svg">
<path d="M125.205 2.55V115.005H147.135V147.135H125.205V181.05H88.74V147.135H0V115.005L87.975 2.55H125.205ZM88.74 51.51L39.525 115.005H88.74V51.51Z" fill="#363636"/>
<path d="M185.25 157.335C171.48 139.825 164.595 117.98 164.595 91.8C164.595 65.62 171.48 43.775 185.25 26.265C199.19 8.755 216.7 0 237.78 0C258.86 0 276.285 8.755 290.055 26.265C303.825 43.775 310.71 65.62 310.71 91.8C310.71 117.98 303.825 139.825 290.055 157.335C276.285 174.845 258.86 183.6 237.78 183.6C216.7 183.6 199.19 174.845 185.25 157.335ZM212.28 49.98C205.65 61.03 202.335 74.97 202.335 91.8C202.335 108.63 205.65 122.57 212.28 133.62C219.08 144.67 227.58 150.195 237.78 150.195C247.98 150.195 256.395 144.67 263.025 133.62C269.655 122.57 272.97 108.63 272.97 91.8C272.97 74.97 269.655 61.03 263.025 49.98C256.395 38.93 247.98 33.405 237.78 33.405C227.58 33.405 219.08 38.93 212.28 49.98Z" fill="#363636"/>
<path d="M448.188 2.55V115.005H470.118V147.135H448.188V181.05H411.723V147.135H322.983V115.005L410.958 2.55H448.188ZM411.723 51.51L362.508 115.005H411.723V51.51Z" fill="#363636"/>
</svg>
