<svg width="94" height="79" viewBox="0 0 94 79" fill="none" xmlns="http://www.w3.org/2000/svg">
<path d="M90.4997 23.5207H64.4997L61.6997 10.2207L36.9997 15.4207C37.6997 17.2207 38.0997 19.1207 38.0997 21.1207C38.0997 29.0207 32.2997 35.6207 24.6997 36.7207L31.0997 67.1207L71.8997 58.5207L69.7997 48.7207H90.4997C91.8997 48.7207 93.0997 47.5207 93.0997 46.0207V29.5207H65.6997L65.0997 26.7207H93.0997V26.3207C93.0997 24.7207 91.8997 23.5207 90.4997 23.5207ZM81.6997 36.1207V38.9207H67.6997L67.0997 36.1207H81.6997Z" fill="#1C1A28"/>
<path d="M12.2999 37.6201C5.9999 37.6201 0.899902 42.7201 0.899902 49.0201C0.899902 55.3201 5.9999 60.4201 12.2999 60.4201C18.5999 60.4201 23.6999 55.3201 23.6999 49.0201C23.6999 42.7201 18.5999 37.6201 12.2999 37.6201ZM13.0999 54.2201V55.9201H11.4999V54.3201C10.5999 54.2201 9.7999 54.0201 9.1999 53.6201L8.9999 53.5201L9.5999 51.9201L9.8999 52.1201C10.4999 52.5201 11.2999 52.7201 11.9999 52.7201C12.9999 52.7201 13.5999 52.2201 13.5999 51.4201C13.5999 50.7201 13.0999 50.2201 11.9999 49.8201C10.4999 49.2201 9.1999 48.5201 9.1999 46.8201C9.1999 45.4201 10.0999 44.3201 11.5999 44.0201V42.3201H13.1999V43.9201C13.8999 44.0201 14.5999 44.1201 15.0999 44.5201L15.2999 44.6201L14.6999 46.2201L14.3999 46.0201C14.0999 45.9201 13.4999 45.5201 12.4999 45.5201C11.4999 45.5201 11.0999 46.1201 11.0999 46.6201C11.0999 47.2201 11.4999 47.6201 12.8999 48.1201C14.6999 48.9201 15.4999 49.8201 15.4999 51.3201C15.5999 52.7201 14.5999 53.8201 13.0999 54.2201Z" fill="#1C1A28"/>
<path d="M72.3 60.8203L31.5 69.4203L33 76.4203C33.3 77.8203 34.7 78.8203 36.2 78.5203L71.8 71.0203C73.2 70.7203 74.2 69.3203 73.9 67.8203L72.3 60.8203ZM53.2 71.5203C52.1 71.7203 51 71.0203 50.8 69.9203C50.6 68.8203 51.3 67.7203 52.4 67.4203C53.5 67.1203 54.6 67.9203 54.8 69.0203C55 70.1203 54.3 71.2203 53.2 71.5203Z" fill="#1C1A28"/>
<path d="M60.0999 3.02058C59.7999 1.62058 58.3999 0.620583 56.8999 0.920583L28.8999 6.82058C30.2999 7.52058 31.5999 8.42058 32.7999 9.42058L41.7999 7.52058L42.2999 9.72058L34.5999 11.3206C35.0999 11.9206 35.4999 12.6206 35.8999 13.3206L61.0999 8.02058L60.0999 3.02058ZM46.2999 9.12058C45.6999 9.22058 45.0999 8.82058 44.8999 8.12058C44.7999 7.42058 45.0999 6.72058 45.6999 6.62058C46.2999 6.52058 46.8999 6.92058 47.0999 7.62058C47.2999 8.32058 46.8999 9.02058 46.2999 9.12058Z" fill="#1C1A28"/>
<path d="M22.1998 35.5207C30.1998 35.5207 36.5998 29.0207 36.5998 21.1207C36.5998 13.1207 30.0998 6.7207 22.1998 6.7207C14.1998 6.7207 7.7998 13.2207 7.7998 21.1207C7.7998 29.1207 14.1998 35.5207 22.1998 35.5207ZM21.8998 21.9207C20.1998 21.2207 18.5998 20.3207 18.5998 18.4207C18.5998 16.8207 19.6998 15.5207 21.3998 15.1207V13.2207H23.1998V15.0207C24.0998 15.1207 24.7998 15.3207 25.4998 15.7207L25.6998 15.8207L25.0998 17.7207L24.7998 17.5207C24.4998 17.3207 23.7998 16.9207 22.5998 16.9207C21.3998 16.9207 20.9998 17.6207 20.9998 18.2207C20.9998 18.9207 21.4998 19.3207 23.0998 20.0207C25.2998 20.9207 26.1998 22.0207 26.1998 23.7207C26.1998 25.4207 24.9998 26.7207 23.2998 27.1207V29.1207H21.3998V27.2207C20.3998 27.1207 19.2998 26.8207 18.6998 26.3207L18.4998 26.2207L19.1998 24.3207L19.5998 24.5207C20.2998 25.0207 21.1998 25.2207 22.0998 25.2207C23.1998 25.2207 23.9998 24.6207 23.9998 23.7207C23.7998 23.0207 23.1998 22.5207 21.8998 21.9207Z" fill="#1C1A28"/>
</svg>
