<svg width="72" height="52" viewBox="0 0 72 52" fill="none" xmlns="http://www.w3.org/2000/svg">
<path d="M60.8719 26.6565C62.7679 26.6565 64.5749 27.0395 66.2249 27.7275V16.1955H0.169922V38.7585C0.169922 42.7115 3.38592 45.9275 7.33892 45.9275H47.9699C47.2919 44.2885 46.9129 42.4955 46.9129 40.6145C46.9129 32.9185 53.1749 26.6565 60.8719 26.6565ZM8.21792 30.1065H16.7669V32.4395H8.21792V30.1065ZM25.3139 38.6535H8.21792V36.3205H25.3149L25.3139 38.6535ZM60.8719 29.6565C54.8189 29.6565 49.9129 34.5625 49.9129 40.6155C49.9129 46.6685 54.8189 51.5745 60.8719 51.5745C66.9239 51.5745 71.8299 46.6685 71.8299 40.6155C71.8299 34.5625 66.9239 29.6565 60.8719 29.6565ZM58.3849 46.6125L53.6749 41.9025L55.7959 39.7815L58.3849 42.3705L65.9479 34.8075L68.0689 36.9285L58.3849 46.6125ZM66.2249 7.35748C66.2249 3.40448 63.0089 0.188477 59.0559 0.188477H7.33892C3.38592 0.188477 0.169922 3.40448 0.169922 7.35748V9.30048H66.2249V7.35748Z" fill="#1C1A28"/>
</svg>
