<svg width="100" height="120" viewBox="0 0 100 120" fill="none" xmlns="http://www.w3.org/2000/svg">
<rect x="0.433013" y="0.25" width="65.2481" height="48.1278" rx="4.5" transform="matrix(0.866025 -0.5 0 1 5.41592 44.3405)" fill="#1C1A28" stroke="white"/>
<rect width="66.2481" height="5.47085" transform="matrix(0.866025 -0.5 0 1 5.35791 57.9521)" fill="white"/>
<rect x="0.433013" y="0.25" width="65.2481" height="48.1278" rx="4.5" transform="matrix(0.866025 -0.5 0 1 37.0605 62.3405)" fill="#1C1A28" stroke="white"/>
<path opacity="0.2" d="M39.8391 113.268C40.159 112.818 40.0533 112.193 39.6031 111.873C39.1529 111.554 38.5286 111.659 38.2087 112.109L39.8391 113.268ZM6.48074 92.842L0.751433 102.867L12.2983 102.816L6.48074 92.842ZM38.2087 112.109C34.948 116.699 28.2087 118.069 21.6387 116.18C15.1204 114.305 9.12753 109.298 7.49862 101.633L5.54231 102.049C7.35594 110.583 14.0137 116.068 21.086 118.102C28.1065 120.121 35.8976 118.815 39.8391 113.268L38.2087 112.109Z" fill="black"/>
<path opacity="0.2" d="M60.6109 6.98722C60.2875 7.43494 60.3883 8.06003 60.836 8.3834C61.2837 8.70677 61.9088 8.60596 62.2322 8.15825L60.6109 6.98722ZM93.8092 27.672L99.6164 17.6916L88.0694 17.6526L93.8092 27.672ZM62.2322 8.15825C65.5285 3.59437 72.2783 2.2767 78.8334 4.21715C85.3369 6.14235 91.2906 11.196 92.8598 18.8729L94.8193 18.4724C93.0721 9.92486 86.4573 4.38821 79.4011 2.29942C72.3964 0.225884 64.5954 1.4705 60.6109 6.98722L62.2322 8.15825Z" fill="black"/>
<rect width="66.2481" height="5.47085" transform="matrix(0.866025 -0.5 0 1 37.0024 79.124)" fill="white"/>
</svg>
