<svg width="30" height="30" viewBox="0 0 30 30" fill="none" xmlns="http://www.w3.org/2000/svg">
<g clip-path="url(#clip0_70_1369)">
<mask id="mask0_70_1369" style="mask-type:luminance" maskUnits="userSpaceOnUse" x="0" y="0" width="30" height="30">
<path d="M29.895 0H0.0654297V29.8296H29.895V0Z" fill="white"/>
</mask>
<g mask="url(#mask0_70_1369)">
<path d="M14.9172 29.8243H15.0361C20.9588 29.8243 24.3966 29.228 26.8317 26.8638C29.3146 24.3561 29.888 20.8951 29.888 14.9955V14.8287C29.888 8.93095 29.3146 5.49311 26.8317 2.96041C24.3983 0.596343 20.9357 0 15.0379 0H14.919C8.99639 0 5.55675 0.596343 3.12169 2.96041C0.638701 5.46825 0.0654297 8.93095 0.0654297 14.8287V14.9955C0.0654297 20.8933 0.638701 24.3312 3.12169 26.8638C5.53369 29.228 8.99639 29.8243 14.9172 29.8243Z" fill="#01E8A5"/>
<path d="M26.3377 14.6864C26.3377 14.5728 26.2454 14.4787 26.1318 14.4734C22.0555 14.319 19.5747 13.7991 17.8392 12.0635C16.1 10.3244 15.5818 7.84174 15.4274 3.75663C15.4239 3.64305 15.3298 3.55078 15.2145 3.55078H14.7389C14.6253 3.55078 14.5312 3.64305 14.5259 3.75663C14.3715 7.83996 13.8533 10.3244 12.1142 12.0635C10.3769 13.8008 7.89781 14.319 3.82157 14.4734C3.70799 14.477 3.61572 14.571 3.61572 14.6864V15.162C3.61572 15.2755 3.70799 15.3696 3.82157 15.3749C7.89781 15.5293 10.3787 16.0492 12.1142 17.7848C13.8498 19.5204 14.368 21.996 14.5242 26.065C14.5277 26.1786 14.6217 26.2709 14.7371 26.2709H15.2145C15.328 26.2709 15.4221 26.1786 15.4274 26.065C15.5836 21.996 16.1018 19.5204 17.8374 17.7848C19.5747 16.0475 22.0537 15.5293 26.13 15.3749C26.2436 15.3714 26.3359 15.2773 26.3359 15.162V14.6864H26.3377Z" fill="#1C1A28"/>
</g>
</g>
<defs>
<clipPath id="clip0_70_1369">
<rect width="30" height="30" fill="white"/>
</clipPath>
</defs>
</svg>
