<svg width="159" height="68" viewBox="0 0 159 68" fill="none" xmlns="http://www.w3.org/2000/svg">
<path d="M0 22.6808C0 19.686 2.26189 17.1749 5.24039 16.8631L152.541 1.44085C155.994 1.07936 159 3.78701 159 7.25855V45.3201C159 48.3149 156.738 50.826 153.76 51.1378L6.4586 66.56C3.00593 66.9215 0 64.2139 0 60.7423L0 22.6808Z" fill="#01E8A5"/>
<path d="M29.0164 34.8884C30.1509 35.3847 30.7181 36.2568 30.7181 37.5047C30.7181 38.3839 30.3777 39.1071 29.6971 39.6743C29.0164 40.2274 28.123 40.5039 27.0169 40.5039H20.6357V29.5281H26.5064C27.5983 29.5281 28.4917 29.8117 29.1866 30.379C29.8814 30.9462 30.2288 31.6694 30.2288 32.5486C30.2288 33.5554 29.8247 34.3353 29.0164 34.8884ZM26.3363 31.8892H23.3371V33.8461H26.3363C26.6624 33.8461 26.9248 33.7539 27.1233 33.5696C27.3218 33.3852 27.4211 33.1442 27.4211 32.8464C27.4211 32.5628 27.3218 32.3359 27.1233 32.1657C26.9248 31.9814 26.6624 31.8892 26.3363 31.8892ZM23.3371 38.1428H26.8468C27.1729 38.1428 27.4353 38.0507 27.6338 37.8663C27.8323 37.682 27.9316 37.4409 27.9316 37.1431C27.9316 36.8595 27.8252 36.6326 27.6125 36.4624C27.414 36.2781 27.1587 36.1859 26.8468 36.1859H23.3371V38.1428ZM37.6695 29.3154C39.513 29.3154 40.9878 29.9819 42.0939 31.3149C43.2141 32.6337 43.6254 34.2077 43.3276 36.037H34.8618C35.0603 36.7035 35.4219 37.2424 35.9466 37.6536C36.4854 38.0507 37.1236 38.2492 37.8609 38.2492C39.1088 38.2492 40.0164 37.7387 40.5836 36.7177L42.9447 37.7812C42.4484 38.6746 41.7464 39.3907 40.8389 39.9296C39.9455 40.4543 38.9245 40.7166 37.7759 40.7166C36.1026 40.7166 34.7058 40.1707 33.5855 39.0788C32.4652 37.9868 31.9051 36.6326 31.9051 35.016C31.9051 33.3994 32.4581 32.0452 33.5642 30.9533C34.6703 29.8614 36.0387 29.3154 37.6695 29.3154ZM37.6695 31.7828C37.0314 31.7828 36.4571 31.9743 35.9466 32.3572C35.4502 32.7258 35.1028 33.2222 34.9043 33.8461H40.456C40.2575 33.2222 39.91 32.7258 39.4137 32.3572C38.9174 31.9743 38.336 31.7828 37.6695 31.7828ZM52.2991 35.016C53.5186 35.5832 54.1284 36.4128 54.1284 37.5047C54.1284 38.4974 53.6888 39.2844 52.8096 39.8658C51.9304 40.433 50.7888 40.7166 49.385 40.7166C48.3781 40.7166 47.4139 40.5535 46.4921 40.2274C45.5846 39.9012 44.8401 39.4475 44.2587 38.866L45.8327 36.9304C46.2865 37.37 46.8466 37.7032 47.5131 37.9301C48.1938 38.1428 48.8177 38.2492 49.385 38.2492C49.9664 38.2492 50.406 38.157 50.7038 37.9727C51.0015 37.7741 51.1504 37.526 51.1504 37.2282C51.1504 36.5333 50.4201 36.1859 48.9595 36.1859H47.3642V33.8461H48.9595C50.4201 33.8461 51.1504 33.4987 51.1504 32.8038C51.1504 32.506 51.0015 32.265 50.7038 32.0806C50.406 31.8821 49.9664 31.7828 49.385 31.7828C48.8177 31.7828 48.1938 31.8963 47.5131 32.1232C46.8466 32.3359 46.2865 32.6691 45.8327 33.1229L44.2587 31.166C44.8401 30.5846 45.5846 30.1308 46.4921 29.8046C47.4139 29.4785 48.3781 29.3154 49.385 29.3154C50.7888 29.3154 51.9304 29.6061 52.8096 30.1875C53.6888 30.7547 54.1284 31.5347 54.1284 32.5273C54.1284 33.6192 53.5186 34.4488 52.2991 35.016ZM66.5446 29.5281V37.9727H68.0336V43.652H65.3322V40.5039H57.5257V43.652H54.8243V37.9727H56.0368C56.5047 37.4905 56.8238 36.9588 56.994 36.3774C57.1783 35.7818 57.2705 34.8033 57.2705 33.442V29.5281H66.5446ZM59.036 37.9727H63.673V32.0594H59.9719V33.442C59.9719 34.7466 59.901 35.7321 59.7592 36.3986C59.6174 37.0651 59.3763 37.5898 59.036 37.9727ZM74.5612 29.3154C76.4047 29.3154 77.8795 29.9819 78.9856 31.3149C80.1058 32.6337 80.5171 34.2077 80.2193 36.037H71.7535C71.952 36.7035 72.3136 37.2424 72.8383 37.6536C73.3772 38.0507 74.0153 38.2492 74.7527 38.2492C76.0006 38.2492 76.9081 37.7387 77.4753 36.7177L79.8364 37.7812C79.3401 38.6746 78.6382 39.3907 77.7306 39.9296C76.8372 40.4543 75.8162 40.7166 74.6676 40.7166C72.9943 40.7166 71.5975 40.1707 70.4772 39.0788C69.3569 37.9868 68.7968 36.6326 68.7968 35.016C68.7968 33.3994 69.3499 32.0452 70.4559 30.9533C71.562 29.8614 72.9305 29.3154 74.5612 29.3154ZM74.5612 31.7828C73.9231 31.7828 73.3488 31.9743 72.8383 32.3572C72.342 32.7258 71.9945 33.2222 71.796 33.8461H77.3477C77.1492 33.2222 76.8018 32.7258 76.3054 32.3572C75.8091 31.9743 75.2277 31.7828 74.5612 31.7828ZM92.9042 29.5281L89.118 34.8246L93.2446 40.5039H89.7987L86.608 36.271H85.0765V40.5039H82.205V29.5281H85.0765V33.761H86.608L89.7561 29.5281H92.9042ZM99.0344 29.3154C100.424 29.3154 101.551 29.677 102.416 30.4002C103.281 31.1234 103.714 32.1799 103.714 33.5696V40.5039H100.842V39.1638C99.9774 40.199 98.8217 40.7166 97.3753 40.7166C96.3401 40.7166 95.4822 40.433 94.8015 39.8658C94.135 39.2844 93.8018 38.5186 93.8018 37.5685C93.8018 35.5123 95.2127 34.3353 98.0347 34.0376L99.8214 33.8674C100.502 33.8248 100.842 33.5341 100.842 32.9953C100.842 32.5982 100.672 32.2792 100.332 32.0381C100.006 31.797 99.5804 31.6765 99.0557 31.6765C98.4885 31.6765 98.0205 31.8254 97.6518 32.1232C97.2973 32.4068 97.0704 32.8109 96.9711 33.3356L94.1208 32.6975C94.2768 31.719 94.7944 30.9107 95.6736 30.2726C96.5528 29.6345 97.6731 29.3154 99.0344 29.3154ZM98.0772 38.4406C98.8288 38.4406 99.474 38.1854 100.013 37.6749C100.566 37.1644 100.842 36.5759 100.842 35.9094V35.6754C100.701 35.7889 100.374 35.881 99.864 35.9519L98.0134 36.1646C97.6022 36.2214 97.276 36.3561 97.0349 36.5688C96.7939 36.7673 96.6733 37.0226 96.6733 37.3345C96.6733 37.6607 96.801 37.9301 97.0562 38.1428C97.3115 38.3414 97.6518 38.4406 98.0772 38.4406ZM112.266 29.3154C113.769 29.3154 115.024 29.8614 116.031 30.9533C117.038 32.0452 117.541 33.3994 117.541 35.016C117.541 36.6326 117.038 37.9868 116.031 39.0788C115.024 40.1707 113.769 40.7166 112.266 40.7166C110.862 40.7166 109.7 40.2132 108.778 39.2064V44.7581H105.906V29.5281H108.778V30.8256C109.7 29.8188 110.862 29.3154 112.266 29.3154ZM109.607 37.2282C110.16 37.8096 110.848 38.1003 111.671 38.1003C112.493 38.1003 113.181 37.8096 113.734 37.2282C114.287 36.6326 114.563 35.8952 114.563 35.016C114.563 34.1368 114.287 33.4065 113.734 32.8251C113.181 32.2437 112.493 31.953 111.671 31.953C110.848 31.953 110.16 32.2508 109.607 32.8464C109.054 33.4278 108.778 34.151 108.778 35.016C108.778 35.8952 109.054 36.6326 109.607 37.2282ZM124.653 40.5039H121.782V32.0594H118.187V29.5281H128.227V32.0594H124.653V40.5039ZM134.077 29.3154C135.467 29.3154 136.594 29.677 137.459 30.4002C138.324 31.1234 138.757 32.1799 138.757 33.5696V40.5039H135.885V39.1638C135.02 40.199 133.865 40.7166 132.418 40.7166C131.383 40.7166 130.525 40.433 129.844 39.8658C129.178 39.2844 128.845 38.5186 128.845 37.5685C128.845 35.5123 130.256 34.3353 133.078 34.0376L134.864 33.8674C135.545 33.8248 135.885 33.5341 135.885 32.9953C135.885 32.5982 135.715 32.2792 135.375 32.0381C135.049 31.797 134.623 31.6765 134.099 31.6765C133.531 31.6765 133.063 31.8254 132.695 32.1232C132.34 32.4068 132.113 32.8109 132.014 33.3356L129.164 32.6975C129.32 31.719 129.837 30.9107 130.717 30.2726C131.596 29.6345 132.716 29.3154 134.077 29.3154ZM133.12 38.4406C133.872 38.4406 134.517 38.1854 135.056 37.6749C135.609 37.1644 135.885 36.5759 135.885 35.9094V35.6754C135.744 35.7889 135.417 35.881 134.907 35.9519L133.056 36.1646C132.645 36.2214 132.319 36.3561 132.078 36.5688C131.837 36.7673 131.716 37.0226 131.716 37.3345C131.716 37.6607 131.844 37.9301 132.099 38.1428C132.354 38.3414 132.695 38.4406 133.12 38.4406Z" fill="black"/>
</svg>
