<svg width="35" height="30" viewBox="0 0 35 30" fill="none" xmlns="http://www.w3.org/2000/svg">
<path d="M18.0634 18.1403H5.37927V13.0584H18.0634C18.8043 13.0584 19.3195 13.1891 19.578 13.4175C19.8365 13.6458 19.9967 14.0693 19.9967 14.6879V16.5127C19.9967 17.1645 19.8365 17.588 19.578 17.8163C19.3195 18.0447 18.8043 18.1422 18.0634 18.1422V18.1403ZM18.9336 8.26727H0V30H5.37927V22.9294H15.2927L19.9967 30H26.0204L20.8341 22.8963C22.7462 22.6094 23.6048 22.0161 24.3129 21.0384C25.0209 20.0606 25.376 18.4974 25.376 16.4112V14.7816C25.376 13.5443 25.2467 12.5666 25.0209 11.8172C24.7952 11.0678 24.4093 10.4159 23.8614 9.83048C23.2825 9.27621 22.6381 8.88591 21.8644 8.62439C21.0907 8.39605 20.124 8.26531 18.9336 8.26531V8.26727Z" fill="#01E8A5"/>
<path d="M30.1531 8.26531C32.4355 8.26531 34.2857 6.41504 34.2857 4.13265C34.2857 1.85025 32.4355 0 30.1531 0C27.8707 0 26.0204 1.85025 26.0204 4.13265C26.0204 6.41504 27.8707 8.26531 30.1531 8.26531Z" fill="#01E8A5"/>
</svg>
