<svg width="29" height="26" viewBox="0 0 29 26" fill="none" xmlns="http://www.w3.org/2000/svg">
<path fill-rule="evenodd" clip-rule="evenodd" d="M24.5907 24.2954V24.2924L24.617 24.2283L29 1.67811V1.60652C29 1.04426 28.7954 0.553582 28.354 0.259774C27.9667 0.00175935 27.521 -0.0161375 27.2082 0.00772512C26.9171 0.034828 26.6299 0.0948525 26.3518 0.186694C26.2331 0.225337 26.1161 0.269125 26.001 0.317939L25.982 0.325396L1.54588 10.1076L1.53858 10.1106C1.46371 10.1349 1.39089 10.1653 1.32081 10.2015C1.14712 10.2814 0.9804 10.3762 0.822446 10.4849C0.508225 10.7056 -0.0895247 11.2246 0.0113182 12.0479C0.0946232 12.731 0.554993 13.1635 0.866291 13.3887C1.04962 13.5208 1.24725 13.6309 1.45527 13.7168L1.50204 13.7377L1.51665 13.7421L1.52688 13.7466L5.80321 15.2157C5.78762 15.4901 5.81539 15.766 5.88651 16.0434L8.0276 24.3342C8.14457 24.7861 8.39731 25.1893 8.75034 25.4871C9.10337 25.7849 9.53895 25.9624 9.9959 25.9947C10.4529 26.0269 10.9082 25.9123 11.2981 25.6669C11.6879 25.4215 11.9926 25.0577 12.1695 24.6265L15.5134 20.9785L21.2556 25.4706L21.3374 25.5064C21.8592 25.7391 22.3458 25.8121 22.7916 25.751C23.2373 25.6884 23.591 25.4975 23.857 25.2812C24.1647 25.0267 24.41 24.7024 24.5731 24.3342L24.5848 24.3088L24.5892 24.2998L24.5907 24.2954ZM8.00568 15.4737C7.98197 15.3817 7.9876 15.2844 8.02177 15.1959C8.05593 15.1074 8.11685 15.0323 8.19567 14.9815L22.6951 5.58561C22.6951 5.58561 23.5486 5.05616 23.5179 5.58561C23.5179 5.58561 23.6699 5.67808 23.2125 6.11208C22.7799 6.5252 12.8783 16.2805 11.8757 17.2678C11.8213 17.3241 11.7825 17.3941 11.7632 17.4707L10.1468 23.7644L8.00568 15.4737Z" fill="#01E8A5"/>
</svg>
