<svg width="30" height="30" viewBox="0 0 30 30" fill="none" xmlns="http://www.w3.org/2000/svg">
<path d="M24.1513 6.015C23.9613 5.91704 23.7765 5.8094 23.5975 5.6925C23.0769 5.34868 22.5997 4.94324 22.1763 4.485C21.115 3.27125 20.7188 2.04 20.5738 1.17875H20.5788C20.4575 0.4625 20.5075 0 20.5163 0H15.685V18.6787C15.6867 18.9287 15.6834 19.1767 15.675 19.4225L15.67 19.5138C15.67 19.5271 15.6688 19.5408 15.6663 19.555V19.5662C15.6155 20.2363 15.4009 20.8836 15.0413 21.4512C14.6816 22.0187 14.188 22.4892 13.6038 22.8213C12.9949 23.1694 12.3052 23.3513 11.6038 23.3488C9.35378 23.3488 7.52878 21.5138 7.52878 19.2475C7.52878 16.9813 9.35378 15.145 11.6038 15.145C12.03 15.145 12.4538 15.2125 12.8588 15.345L12.865 10.425C11.635 10.2665 10.3856 10.3646 9.19539 10.7131C8.00522 11.0616 6.9002 11.653 5.95003 12.45C5.11766 13.1735 4.41762 14.0364 3.88128 15C3.67753 15.3512 2.90753 16.765 2.81503 19.0575C2.75628 20.3575 3.14753 21.7075 3.33378 22.2638V22.2762C3.45003 22.6037 3.90503 23.7237 4.64503 24.6675C5.24236 25.4245 5.94735 26.0899 6.73753 26.6425V26.63L6.74878 26.6425C9.08628 28.23 11.68 28.1262 11.68 28.1262C12.1288 28.1075 13.6325 28.1262 15.34 27.3175C17.2338 26.42 18.3113 25.0837 18.3113 25.0837C19.0008 24.2856 19.5487 23.3754 19.9313 22.3925C20.3688 21.2425 20.5138 19.865 20.5138 19.315V9.40375C20.5725 9.43875 21.3538 9.955 21.3538 9.955C21.3538 9.955 22.4788 10.6763 24.2325 11.145C25.49 11.4788 27.1863 11.55 27.1863 11.55V6.75375C26.5925 6.81875 25.3863 6.63125 24.15 6.01625" fill="#01E8A5"/>
</svg>
