<svg width="35" height="20" viewBox="0 0 35 20" fill="none" xmlns="http://www.w3.org/2000/svg">
<path fill-rule="evenodd" clip-rule="evenodd" d="M34.1972 1.35429C34.4393 0.574286 34.1972 0 33.0378 0H29.2098C28.2357 0 27.7865 0.495714 27.543 1.04286C27.543 1.04286 25.5961 5.60857 22.8385 8.57429C21.946 9.43429 21.5406 9.70714 21.0535 9.70714C20.81 9.70714 20.4439 9.43429 20.4439 8.65286V1.35429C20.4439 0.417143 20.1756 0 19.3648 0H13.3449C12.7368 0 12.3708 0.434286 12.3708 0.847143C12.3708 1.73429 13.7503 1.94 13.8918 4.43714V9.86286C13.8918 11.0529 13.6687 11.2686 13.1816 11.2686C11.8837 11.2686 8.72648 6.68143 6.85256 1.43286C6.48945 0.411428 6.12195 0 5.14343 0H1.31247C0.218745 0 0 0.495714 0 1.04286C0 2.01714 1.29789 6.85714 6.04466 13.2586C9.20918 17.63 13.6643 20 17.7228 20C20.1567 20 20.4571 19.4743 20.4571 18.5671V15.2629C20.4571 14.21 20.6875 14 21.4589 14C22.0277 14 23.0004 14.2743 25.2724 16.3814C27.8682 18.88 28.2954 20 29.7567 20H33.5847C34.6784 20 35.2268 19.4743 34.9118 18.4343C34.5647 17.4 33.3251 15.8986 31.6816 14.1171C30.7891 13.1029 29.4504 12.01 29.0436 11.4629C28.4763 10.7614 28.6381 10.4486 29.0436 9.82429C29.0436 9.82429 33.7101 3.50143 34.1957 1.35429" fill="#01E8A5"/>
</svg>
