<svg width="60" height="56" viewBox="0 0 60 56" fill="none" xmlns="http://www.w3.org/2000/svg">
<path d="M43.7381 21.2717C46.1422 21.2717 48.5215 21.7133 50.7578 22.5777V4.24409C50.7605 3.12115 50.3094 2.04128 49.498 1.24414C48.6866 0.447069 47.5863 0 46.4365 0H34.6994L34.7021 16.9411C34.7021 17.3208 34.5454 17.687 34.2703 17.9563C33.9952 18.2256 33.6239 18.3764 33.2333 18.3764C32.9775 18.3764 32.7244 18.3091 32.5016 18.1826L25.3634 14.1539L18.1816 18.1826C17.7278 18.4384 17.1694 18.4384 16.7155 18.1826C16.2617 17.9267 15.9838 17.4528 15.9811 16.9411V2.10385e-05H4.31303C1.93097 0.0027138 0.00274625 1.89316 0 4.22254V45.5136C0 47.8483 1.92822 49.7415 4.31303 49.7441H27.278C24.9345 45.9229 24.0515 41.4122 24.7887 37.0146C25.5286 32.617 27.8391 28.6205 31.3105 25.7368C34.7818 22.8527 39.1863 21.269 43.7381 21.2717ZM7.53964 30.4275H12.6751C13.4838 30.4275 14.1412 31.0684 14.1412 31.8628C14.1412 32.6572 13.4838 33.2981 12.6751 33.2981H7.53964C6.72823 33.2981 6.07357 32.6572 6.07357 31.8628C6.07357 31.0684 6.72823 30.4275 7.53964 30.4275ZM21.2568 43.8844H7.53964C6.72823 43.8844 6.07357 43.2408 6.07357 42.4491C6.07357 41.6547 6.72823 41.0111 7.53964 41.0111H21.2568C22.0655 41.0111 22.7229 41.6547 22.7229 42.4491C22.7229 43.2408 22.0655 43.8844 21.2568 43.8844ZM21.2568 38.5928H7.53964C6.72823 38.5928 6.07357 37.9491 6.07357 37.1548C6.07357 36.3631 6.72823 35.7194 7.53964 35.7194H21.2568C22.0655 35.7194 22.7229 36.3631 22.7229 37.1548C22.7229 37.9491 22.0655 38.5928 21.2568 38.5928ZM43.7381 24.1424C39.4223 24.1424 35.2824 25.8175 32.2292 28.8039C29.1787 31.793 27.4623 35.8433 27.4623 40.0685C27.4596 44.2937 29.176 48.3467 32.2264 51.3332C35.2769 54.3223 39.4167 56 43.7325 56C48.0483 55.9973 52.1882 54.3196 55.2386 51.3305C58.2891 48.3414 60.0027 44.2884 60 40.0631C59.9945 35.8433 58.2781 31.7987 55.2304 28.8122C52.1827 25.8285 48.0483 24.1478 43.7381 24.1424ZM43.7381 38.4046C46.9068 38.4046 49.4897 40.6236 49.4897 43.3515C49.4897 45.6485 47.6716 47.574 45.207 48.1341V49.6637L45.2042 49.6664C45.2042 50.4581 44.5496 51.1017 43.7382 51.1017C42.9267 51.1017 42.2721 50.4581 42.2721 49.6664V48.1153C39.8075 47.5552 37.981 45.6297 37.981 43.3327C37.981 42.5383 38.6357 41.8947 39.4471 41.8947C40.2585 41.8947 40.9132 42.5383 40.9132 43.3327C40.9132 44.461 42.2032 45.4143 43.7381 45.4143C45.2702 45.4143 46.5548 44.4583 46.5548 43.3327C46.5548 42.2043 45.2647 41.2564 43.7381 41.2564C40.5611 41.2564 37.9809 39.0294 37.9809 36.3014C37.9809 34.0098 39.8074 32.0789 42.272 31.5188V30.4416C42.272 29.6472 42.9267 29.0063 43.7381 29.0063C44.5495 29.0063 45.2042 29.6472 45.2042 30.4416V31.5188C47.6688 32.0789 49.4869 34.0098 49.4869 36.3014H49.4897C49.4897 37.0958 48.8323 37.7367 48.0208 37.7367C47.2122 37.7367 46.5548 37.0958 46.5548 36.3014C46.5548 35.1731 45.2647 34.2252 43.7381 34.2252C42.2115 34.2252 40.9132 35.1892 40.9132 36.323C40.9132 37.4568 42.206 38.4046 43.7381 38.4046Z" fill="#363636"/>
<path d="M24.7076 11.254L19 14.4558V0H31.8785V14.4345L26.1654 11.2326C25.7115 10.9741 25.1532 10.9741 24.6993 11.2326L24.7076 11.254Z" fill="#01E8A5"/>
</svg>
