<svg width="49" height="40" viewBox="0 0 49 40" fill="none" xmlns="http://www.w3.org/2000/svg">
<path d="M26.9403 12.5085L25.3681 13.2946L29.9005 15.6505C31.0478 15.1076 32.077 14.5622 33.1039 14.0193L28.3897 12.3881C27.9058 12.2677 27.4218 12.3267 26.9403 12.5085Z" fill="#01E8A5"/>
<path d="M41.0802 10.3352C37.695 3.92811 31.1088 0 23.7953 0C12.9791 0 4.15474 8.82435 4.15474 19.6406C4.15474 23.9322 5.60415 28.1627 8.20323 31.5452C11.5884 30.5773 15.7573 28.8257 19.8673 26.6492C20.2308 26.4674 20.6534 26.5878 20.8352 26.9513C21.017 27.3149 20.8966 27.7374 20.533 27.9192C16.5435 30.0343 12.5565 31.7269 9.17112 32.7538C12.9174 36.9227 18.1744 39.3397 23.8568 39.3397C34.673 39.3397 43.4974 30.5154 43.4974 19.6992C43.4974 18.9745 43.436 18.2498 43.377 17.5226C42.1069 18.1884 40.6575 18.8517 38.9649 19.6378L36.0047 26.7078C35.7025 27.4325 35.1596 27.9778 34.4325 28.339L31.4109 29.7318C31.2905 29.7931 31.2291 29.7931 31.1087 29.7931C30.9269 29.7931 30.8065 29.7318 30.6861 29.6114C30.5044 29.4296 30.384 29.1888 30.4454 28.9456L31.8948 22.5386C29.7182 23.4451 27.7259 24.2312 25.9719 24.8945L25.2472 25.1966C25.0064 25.258 24.4611 25.4988 23.8568 25.4988C23.5546 25.4988 23.191 25.4374 22.8299 25.317C21.803 24.8945 16.3026 20.1189 16.8481 18.3057C16.9094 18.0649 17.0888 17.8831 17.332 17.7627C17.9977 17.4606 19.145 17.8831 21.6237 18.91C21.9872 19.0917 22.4687 19.2735 22.7119 19.3939C24.6453 18.367 26.5197 17.3402 28.3326 16.4337L23.4366 13.896C23.1958 13.7756 23.0731 13.5325 23.0731 13.2917C23.0731 13.0509 23.2549 12.8077 23.4366 12.6873L26.2765 11.2969C27.0626 10.9334 27.9077 10.8744 28.6938 11.1151L34.737 13.1689C36.5476 12.3261 39.0263 11.1788 41.08 10.3337L41.0802 10.3352Z" fill="#363636"/>
<path d="M47.4257 11.2421L44.4041 12.6915C44.2837 12.7528 44.2223 12.7528 44.1019 12.7528C43.8611 12.7528 43.618 12.5711 43.4976 12.3303C43.3158 11.9668 43.4976 11.5442 43.7997 11.4238L45.4309 10.6377C44.947 10.6377 44.5244 10.6377 44.1609 10.6991C43.7973 10.7604 43.134 11.0012 42.2865 11.3034C40.5939 11.9691 38.1176 13.055 35.0962 14.5068C33.5854 15.2315 31.8928 16.079 30.0799 16.9855C27.9033 18.0738 25.5474 19.3414 23.0685 20.6728C22.705 20.8546 22.4028 20.7932 21.0148 20.1299C20.349 19.8277 19.0814 19.2848 18.2953 19.0416C19.0814 20.3707 22.3438 23.5741 23.2503 23.9376C23.7932 24.1784 24.3975 23.9376 24.6407 23.8172L25.3654 23.5151C27.2988 22.729 29.6571 21.8225 32.1332 20.7956L32.6172 18.6805C32.6785 18.3169 33.1011 18.0761 33.4623 18.1965C33.8258 18.2579 34.0666 18.6805 33.9462 19.0416L31.8925 27.8043L33.5236 27.0182C33.9462 26.8365 34.2484 26.4753 34.4301 26.0503L37.5132 18.7368L38.8422 15.5948C39.024 15.2313 39.3851 15.1109 39.7487 15.2313C40.1122 15.3517 40.2916 15.7742 40.1122 16.1378L39.5079 17.5872C48.5728 13.3569 48.209 11.9075 48.209 11.8461C48.2703 11.7847 47.9096 11.4828 47.4257 11.2421Z" fill="#01E8A5"/>
<path d="M0.226598 32.5715C0.649154 33.4166 1.67601 33.8415 3.30962 33.8415C3.85257 33.8415 4.51827 33.7802 5.24298 33.6598C5.96768 33.5394 6.81519 33.3576 7.72168 33.1168C7.60128 32.9964 7.53991 32.876 7.41951 32.7533C7.17873 32.4511 6.99696 32.2103 6.75379 31.9082C6.08807 32.09 5.48374 32.2104 5.00221 32.2717C2.7053 32.6353 1.67843 32.3331 1.43767 31.9082C1.2559 31.4856 1.55806 30.5178 3.06886 28.8866C3.30965 28.5844 3.30965 28.1619 3.00748 27.9187C2.70532 27.6779 2.28278 27.6779 2.0396 27.9801C0.226622 29.8521 -0.377727 31.4242 0.226598 32.5715Z" fill="#363636"/>
</svg>
