<svg width="52" height="52" viewBox="0 0 52 52" fill="none" xmlns="http://www.w3.org/2000/svg">
<path fill-rule="evenodd" clip-rule="evenodd" d="M37.0743 40.6105C37.6136 40.3287 38.1065 40.0354 38.5319 39.726C39.0488 38.1857 39.4439 36.6179 39.6925 35.1089C39.4264 34.9657 39.0607 34.7761 38.5973 34.5358C38.4079 34.4376 38.2021 34.331 37.9801 34.2155C37.9235 33.6675 37.8647 33.1069 37.7945 32.5443C37.1851 31.9286 36.4633 31.2302 35.6428 30.4747C34.3812 30.3717 32.9112 30.2271 31.3262 30.0623C31.0766 30.4747 30.8229 30.8829 30.566 31.2937C30.4929 31.269 30.4194 31.2443 30.3455 31.2195C30.0949 31.1353 29.8403 31.0497 29.5868 30.9614C29.4545 30.3703 29.3151 29.774 29.1751 29.1752L29.1381 29.0166C28.63 28.9833 28.122 28.9407 27.6124 28.8897C27.7003 28.6484 27.7901 28.4071 27.8799 28.1656C28.0175 27.7956 28.1553 27.4252 28.2868 27.0536C27.8682 27.0005 27.4283 26.9454 26.9988 26.8945C26.5537 27.2267 26.1101 27.572 25.6692 27.9168C25.4888 27.6442 25.3083 27.3736 25.1278 27.103C25.0101 26.9265 24.8924 26.75 24.7748 26.5731C24.9265 26.1767 25.0761 25.7781 25.2253 25.3806C25.3522 25.0424 25.4788 24.705 25.6062 24.3704C26.7918 24.2248 27.9655 24.0896 29.0996 23.9689C29.2148 24.3117 29.3287 24.6567 29.4428 25.0023C29.53 25.2665 29.6173 25.5311 29.7054 25.7952C29.8911 25.771 30.0747 25.7521 30.2554 25.7336C30.3621 25.7226 30.4678 25.7118 30.5722 25.7C30.5749 25.4798 30.577 25.2617 30.5792 25.0446C30.5826 24.7064 30.5859 24.3708 30.591 24.0345C31.372 22.9726 32.1213 21.9503 32.8093 20.9836C33.0245 20.882 33.2359 20.7821 33.4434 20.684C34.1003 20.3735 34.7186 20.0813 35.2975 19.811C36.2896 19.4642 37.1612 19.1808 37.9037 18.9478C37.3036 17.0483 36.5647 15.1414 35.7332 13.4005C35.6557 13.4291 35.5771 13.458 35.4977 13.4873C35.284 13.5659 35.064 13.6469 34.8404 13.7307C34.518 12.9579 34.1774 12.2237 33.8326 11.517C33.1998 11.4182 32.5456 11.3246 31.8733 11.244C31.8156 12.3485 31.723 13.5908 31.6091 14.9365H30.813C29.6498 13.7073 28.4694 12.5633 27.3139 11.5597C27.458 11.2478 27.6012 10.9557 27.7396 10.6735C27.8144 10.5209 27.8879 10.3711 27.9592 10.2227C29.0809 10.1489 30.1682 10.1005 31.2176 10.0938C31.0865 9.08654 30.9508 8.23374 30.7818 7.56138C28.3165 7.47818 25.6889 7.47402 23.0395 7.6373C21.9056 7.28326 20.8462 7.0053 19.8457 6.74278C19.6794 6.69915 19.5148 6.65595 19.3517 6.6129C18.672 6.85418 17.9778 7.16566 17.2888 7.55254C15.9337 7.16566 14.6925 6.78606 13.3868 6.21094C12.4726 6.76058 11.5902 7.37002 10.7634 8.04342C10.814 8.12575 10.8649 8.20692 10.915 8.28682C10.9987 8.42036 11.0802 8.55034 11.1544 8.67626C10.9793 8.71289 10.8052 8.7542 10.6323 8.79519C10.5059 8.82519 10.3801 8.85501 10.2553 8.8827C10.1576 9.24462 10.0666 9.60602 9.98439 9.98354C10.3479 9.90918 10.7186 9.85198 11.1097 9.79322C10.6718 10.2643 10.2824 10.7724 9.93343 11.3054C10.0279 11.7764 10.1031 12.248 10.1773 12.7137L10.1825 12.7463C10.4493 12.6959 10.7311 12.6496 11.0358 12.6049C10.4836 13.3495 10.0198 14.13 9.65991 14.9381C10.208 14.0161 10.9916 13.1446 11.9136 12.3464C12.4211 11.8753 12.978 11.4203 13.5558 11.0007L13.6032 11.0193C14.3596 11.3173 15.1773 11.6394 16.058 12.0209C16.3307 12.5066 16.6215 13.0179 16.9279 13.5568C17.2939 14.2006 17.6824 14.8836 18.0891 15.6094C17.9794 16.8787 17.8858 18.2287 17.8057 19.6165C18.2857 20.6238 18.8 21.6794 19.335 22.7651C20.23 24.2716 21.1675 25.8498 22.1342 27.4415C22.8015 27.6955 23.4756 27.9544 24.1506 28.2135C24.6942 28.4223 25.2385 28.6313 25.7804 28.8382C26.0836 28.9955 26.3869 29.156 26.6888 29.3158C26.9011 29.4281 27.1127 29.5401 27.3233 29.6505C27.9135 30.4372 28.4891 31.2224 29.044 31.9863C29.2973 31.946 29.5484 31.9031 29.798 31.8603C29.9547 31.8335 30.1108 31.8068 30.2665 31.7809C30.148 31.9672 30.0295 32.154 29.9109 32.3411C29.5592 32.8958 29.2056 33.4534 28.8448 34.0086C29.1682 35.4963 29.4589 36.9305 29.733 38.283C30.4511 38.8903 31.1302 39.4509 31.7776 39.9777C30.7714 42.9042 29.7085 45.3602 28.708 47.0174C29.9082 46.8011 31.0714 46.4667 32.1993 46.0606C32.2118 46.051 32.2221 46.0409 32.2325 46.0308C32.245 46.0186 32.2575 46.0065 32.2737 45.9951C33.8326 44.9561 35.3557 43.6676 36.6448 42.2142C36.7925 41.6937 36.9412 41.1627 37.0743 40.6105Z" fill="#01E8A5"/>
<path d="M26 0C11.6381 0 0 11.6397 0 26C0 40.3603 11.6381 52 26 52C40.3608 52 52 40.3603 52 26C52 11.6397 40.3608 0 26 0ZM38.5429 39.7259C38.1176 40.0353 37.6246 40.3286 37.0854 40.6104C36.9522 41.1627 36.8035 41.6936 36.6558 42.2141C35.3668 43.6675 33.8437 44.9561 32.2847 45.995C32.2551 46.0158 32.2379 46.0392 32.2104 46.0606C31.0825 46.4667 29.9192 46.801 28.7191 47.0174C29.7196 45.3601 30.7824 42.9042 31.7886 39.9776C31.1412 39.4508 30.4621 38.8903 29.744 38.2829C29.47 36.9304 29.1793 35.4962 28.8558 34.0085C29.3384 33.266 29.808 32.5192 30.2775 31.7808C29.874 31.8479 29.4674 31.9207 29.055 31.9862C28.5002 31.2224 27.9245 30.4372 27.3343 29.6504C26.8242 29.3831 26.3078 29.106 25.7915 28.8382C24.5768 28.3743 23.3501 27.9001 22.1452 27.4414C21.1786 25.8497 20.241 24.2715 19.3461 22.7651C18.811 21.6793 18.2967 20.6237 17.8168 19.6165C17.8968 18.2286 17.9904 16.8787 18.1002 15.6094C17.3529 14.2761 16.6676 13.0868 16.069 12.0208C15.17 11.6314 14.3364 11.3038 13.5668 11.0006C12.9891 11.4202 12.4322 11.8752 11.9246 12.3464C11.0027 13.1446 10.219 14.0161 9.67096 14.938C10.0308 14.13 10.4946 13.3494 11.0469 12.6048C10.7422 12.6495 10.4603 12.6958 10.1936 12.7462C10.1176 12.2699 10.0412 11.7874 9.94448 11.3053C10.2934 10.7723 10.6829 10.2643 11.1207 9.79316C10.7297 9.85192 10.3589 9.90912 9.99544 9.98348C10.0776 9.60596 10.1686 9.24456 10.2664 8.88264C10.5617 8.81712 10.8623 8.73964 11.1654 8.6762C11.0469 8.47496 10.9096 8.26332 10.7744 8.04336C11.6012 7.36996 12.4836 6.76052 13.3978 6.21088C14.7035 6.786 15.9448 7.1656 17.2999 7.55248C17.9889 7.1656 18.6831 6.85412 19.3627 6.61284C20.5072 6.91496 21.7282 7.22436 23.0506 7.63724C25.7 7.47396 28.3275 7.47812 30.7928 7.56132C30.9618 8.23368 31.0976 9.08648 31.2286 10.0937C30.1792 10.1005 29.0919 10.1488 27.9703 10.2227C27.767 10.6454 27.547 11.0791 27.325 11.5596C28.4804 12.5632 29.6608 13.7072 30.824 14.9365C31.0872 14.9365 31.3596 14.9365 31.6202 14.9365C31.734 13.5907 31.8266 12.3484 31.8843 11.244C32.5567 11.3246 33.2108 11.4182 33.8437 11.517C34.1884 12.2236 34.529 12.9579 34.8514 13.7306C35.1582 13.6157 35.4583 13.506 35.7443 13.4004C36.5758 15.1414 37.3147 17.0482 37.9148 18.9478C37.1722 19.1807 36.3007 19.4641 35.3085 19.811C34.5467 20.1666 33.7168 20.5603 32.8203 20.9836C32.1324 21.9502 31.383 22.9726 30.602 24.0344C30.5937 24.5866 30.59 25.1368 30.5833 25.7C30.302 25.7317 30.0118 25.7566 29.7164 25.7951C29.5131 25.1857 29.314 24.5736 29.1106 23.9689C27.9765 24.0895 26.8029 24.2247 25.6173 24.3703C25.3401 25.0983 25.0666 25.8393 24.7858 26.573C25.0838 27.0213 25.3822 27.4664 25.6802 27.9167C26.1212 27.572 26.5647 27.2267 27.0098 26.8944C27.4394 26.9454 27.8793 27.0005 28.2979 27.0535C28.0805 27.6676 27.846 28.2786 27.6234 28.8896C28.133 28.9406 28.6411 28.9832 29.1491 29.0165C29.3015 29.6686 29.4538 30.3181 29.5979 30.9613C29.926 31.0757 30.2562 31.1854 30.577 31.2936C30.8339 30.8828 31.0877 30.4746 31.3373 30.0622C32.9222 30.2271 34.3923 30.3716 35.6538 30.4746C36.4744 31.2302 37.1961 31.9285 37.8056 32.5442C37.8758 33.1068 37.9345 33.6674 37.9912 34.2155C38.7561 34.6133 39.3286 34.9071 39.7036 35.1088C39.455 36.6179 39.0598 38.1857 38.5429 39.7259Z" fill="#363636"/>
</svg>
