<svg width="35" height="25" viewBox="0 0 35 25" fill="none" xmlns="http://www.w3.org/2000/svg">
<path d="M14 17.2414L23.0825 12.069L14 6.89655V17.2414ZM34.23 3.74138C34.4575 4.55172 34.615 5.63793 34.72 7.01724C34.8425 8.39655 34.895 9.58621 34.895 10.6207L35 12.069C35 15.8448 34.72 18.6207 34.23 20.3966C33.7925 21.9483 32.7775 22.9483 31.2025 23.3793C30.38 23.6034 28.875 23.7586 26.565 23.8621C24.29 23.9828 22.2075 24.0345 20.2825 24.0345L17.5 24.1379C10.1675 24.1379 5.6 23.8621 3.7975 23.3793C2.2225 22.9483 1.2075 21.9483 0.77 20.3966C0.5425 19.5862 0.385 18.5 0.28 17.1207C0.1575 15.7414 0.105 14.5517 0.105 13.5172L0 12.069C0 8.2931 0.28 5.51724 0.77 3.74138C1.2075 2.18966 2.2225 1.18966 3.7975 0.758621C4.62 0.534483 6.125 0.37931 8.435 0.275862C10.71 0.155172 12.7925 0.103448 14.7175 0.103448L17.5 0C24.8325 0 29.4 0.275862 31.2025 0.758621C32.7775 1.18966 33.7925 2.18966 34.23 3.74138Z" fill="#01E8A5"/>
</svg>
